#!OML:ASF H:\Punching\Project 1\Capture day 1\Session 1\female.ASF
:FULLY-SPECIFIED
:DEGREES
842
root 0.463602 15.6159 7.02404 12.1511 -7.6676 0.577461
lowerback 0.324929 -1.72735 1.89127
upperback -6.35302 -2.29227 -0.552638
thorax -6.89066 -1.27071 -1.48676
lowerneck -1.84664 12.4285 18.5157
upperneck 20.562 18.8922 -15.1394
head 10.0843 9.21518 -6.14489
rclavicle 6.32562e-014 1.81888e-014
rhumerus -52.3695 26.3269 -98.4207
rradius 68.4755
rwrist -12.2181
rhand -6.62693 -10.3059
rfingers 7.12502
rthumb 19.2296 -39.3752
lclavicle 6.32562e-014 1.81888e-014
lhumerus -22.265 -29.1632 63.3221
lradius 82.337
lwrist -7.03886
lhand -3.03567 9.64518
lfingers 7.12502
lthumb 22.6797 38.3325
rfemur -14.4342 3.63857 17.5367
rtibia 28.847
rfoot -22.0825 -15.9857
rtoes -5.94992
lfemur -30.4644 -17.7662 2.7025
ltibia 16.7353
lfoot -7.02502 35.36
ltoes 23.1079
843
root 0.424922 15.6309 6.96234 12.1239 -7.93581 0.737288
lowerback 0.32755 -1.7248 1.78328
upperback -6.32797 -2.29487 -0.577445
thorax -6.86155 -1.26631 -1.45255
lowerneck -1.89421 12.4714 18.603
upperneck 20.5142 18.9597 -15.2553
head 10.1123 9.24191 -6.18393
rclavicle 2.9181e-014 1.8487e-014
rhumerus -51.6138 26.5294 -98.3277
rradius 66.6697
rwrist -11.9139
rhand -6.79129 -10.4427
rfingers 7.12502
rthumb 19.0715 -39.5277
lclavicle 2.9181e-014 1.8487e-014
lhumerus -24.2646 -28.7278 65.12
lradius 80.8478
lwrist -6.87767
lhand -2.9325 9.76323
lfingers 7.12502
lthumb 22.7787 38.4384
rfemur -14.7458 3.93254 17.4868
rtibia 28.9255
rfoot -21.9685 -16.0096
rtoes -5.76039
lfemur -29.8438 -16.4061 1.60656
ltibia 17.0346
lfoot -5.97264 33.5343
ltoes 21.1594
844
root 0.388357 15.6455 6.9025 12.0804 -8.17918 0.920752
lowerback 0.34424 -1.72321 1.65753
upperback -6.3006 -2.29955 -0.608531
thorax -6.8377 -1.26214 -1.41443
lowerneck -1.93928 12.5079 18.6881
upperneck 20.445 19.0189 -15.3846
head 10.1318 9.26409 -6.22881
rclavicle 1.5273e-014 -5.46658e-015
rhumerus -50.8497 26.6441 -98.194
rradius 64.8419
rwrist -11.5136
rhand -6.92174 -10.5793
rfingers 7.12502
rthumb 18.9461 -39.6766
lclavicle 1.5273e-014 -5.46658e-015
lhumerus -26.1694 -28.0643 66.8452
lradius 79.2939
lwrist -6.61949
lhand -2.77687 9.93574
lfingers 7.12502
lthumb 22.9281 38.5924
rfemur -15.02 4.22162 17.4041
rtibia 28.9914
rfoot -21.8861 -16.0659
rtoes -5.57722
lfemur -29.2099 -14.8823 0.392768
ltibia 17.3923
lfoot -4.85337 31.517
ltoes 18.988
845
root 0.35371 15.6596 6.84467 12.0252 -8.40525 1.12877
lowerback 0.365418 -1.7188 1.51223
upperback -6.26957 -2.3016 -0.648349
thorax -6.81197 -1.25583 -1.37458
lowerneck -1.98372 12.5369 18.7753
upperneck 20.351 19.0679 -15.5303
head 10.1426 9.2809 -6.28149
rclavicle -2.26917e-014 4.22417e-015
rhumerus -50.0781 26.6575 -98.0164
rradius 63.004
rwrist -11.0319
rhand -7.00242 -10.7322
rfingers 7.12502
rthumb 18.8685 -39.837
lclavicle -2.26917e-014 4.22417e-015
lhumerus -27.962 -27.1797 68.4718
lradius 77.6894
lwrist -6.26628
lhand -2.57488 10.1706
lfingers 7.12502
lthumb 23.1219 38.8031
rfemur -15.264 4.51466 17.2856
rtibia 29.0476
rfoot -21.8456 -16.1487
rtoes -5.403
lfemur -28.5886 -13.3098 -0.873684
ltibia 17.8218
lfoot -3.84666 29.4092
ltoes 16.7207
846
root 0.321256 15.6734 6.78929 11.9553 -8.60552 1.35776
lowerback 0.390353 -1.71481 1.35904
upperback -6.23495 -2.30489 -0.696067
thorax -6.78468 -1.24995 -1.33842
lowerneck -2.01853 12.5568 18.8573
upperneck 20.2308 19.1046 -15.6867
head 10.1404 9.29182 -6.33977
rclavicle 1.28212e-014 1.33186e-014
rhumerus -49.3102 26.5687 -97.7969
rradius 61.1716
rwrist -10.5054
rhand -7.04339 -10.8882
rfingers 7.12502
rthumb 18.8291 -39.9968
lclavicle 1.28212e-014 1.33186e-014
lhumerus -29.6389 -26.1003 69.9837
lradius 76.0463
lwrist -5.82581
lhand -2.3691 10.4751
lfingers 7.12502
lthumb 23.3193 39.0827
rfemur -15.4729 4.80289 17.1354
rtibia 29.0965
rfoot -21.8579 -16.2524
rtoes -5.24868
lfemur -27.9938 -11.7573 -2.15481
ltibia 18.3389
lfoot -3.03259 27.2672
ltoes 14.4144
847
root 0.290809 15.6867 6.7364 11.8874 -8.80124 1.59873
lowerback 0.402049 -1.70313 1.20212
upperback -6.20216 -2.29853 -0.750986
thorax -6.75159 -1.23937 -1.30867
lowerneck -2.04055 12.5676 18.9399
upperneck 20.0875 19.1284 -15.85
head 10.1258 9.29743 -6.40345
rclavicle -3.37738e-014 -2.25621e-014
rhumerus -48.5564 26.3675 -97.5375
rradius 59.3611
rwrist -9.96524
rhand -7.02603 -11.0453
rfingers 7.12502
rthumb 18.8458 -40.1523
lclavicle -3.37738e-014 -2.25621e-014
lhumerus -31.2024 -24.8563 71.3683
lradius 74.3715
lwrist -5.32985
lhand -2.21177 10.8329
lfingers 7.12502
lthumb 23.4703 39.4213
rfemur -15.6712 5.09549 16.9603
rtibia 29.1412
rfoot -21.9156 -16.3831
rtoes -5.17003
lfemur -27.4448 -10.2674 -3.41166
ltibia 18.9611
lfoot -2.48567 25.1783
ltoes 12.1792
848
root 0.262586 15.6993 6.68629 11.8271 -8.99314 1.84134
lowerback 0.397797 -1.68578 1.05266
upperback -6.17678 -2.28443 -0.80682
thorax -6.71742 -1.22554 -1.28488
lowerneck -2.04698 12.5693 19.012
upperneck 19.932 19.1403 -16.011
head 10.1002 9.29807 -6.46779
rclavicle 5.04379e-014 -7.70291e-016
rhumerus -47.8371 26.063 -97.2448
rradius 57.5908
rwrist -9.44391
rhand -6.97095 -11.1706
rfingers 7.12502
rthumb 18.8988 -40.2725
lclavicle 5.04379e-014 -7.70291e-016
lhumerus -32.6729 -23.4645 72.6283
lradius 72.6711
lwrist -4.83215
lhand -2.15463 11.2236
lfingers 7.12502
lthumb 23.5251 39.805
rfemur -15.8621 5.38396 16.7713
rtibia 29.1821
rfoot -22.0195 -16.5302
rtoes -5.17358
lfemur -26.9521 -8.86824 -4.62188
ltibia 19.7027
lfoot -2.23796 23.2015
ltoes 10.0484
849
root 0.236784 15.7109 6.63944 11.7809 -9.19372 2.06442
lowerback 0.37297 -1.6556 0.935052
upperback -6.16017 -2.25188 -0.861806
thorax -6.68158 -1.20446 -1.27963
lowerneck -2.04906 12.5641 19.0792
upperneck 19.7783 19.1408 -16.1615
head 10.0704 9.29423 -6.52994
rclavicle 4.17429e-014 3.72721e-016
rhumerus -47.1595 25.6556 -96.9269
rradius 55.8788
rwrist -8.9867
rhand -6.88735 -11.3081
rfingers 7.12502
rthumb 18.9792 -40.4021
lclavicle 4.17429e-014 3.72721e-016
lhumerus -34.0704 -21.9537 73.7656
lradius 70.9482
lwrist -4.38596
lhand -2.26137 11.5997
lfingers 7.12502
lthumb 23.4227 40.1942
rfemur -16.0536 5.66968 16.5879
rtibia 29.2191
rfoot -22.1709 -16.6784
rtoes -5.24746
lfemur -26.5126 -7.57317 -5.76011
ltibia 20.5675
lfoot -2.31383 21.3999
ltoes 8.08304
850
root 0.21352 15.7211 6.59557 11.7548 -9.40052 2.25855
lowerback 0.325913 -1.61394 0.856857
upperback -6.15474 -2.20205 -0.909665
thorax -6.64573 -1.17692 -1.29048
lowerneck -2.047 12.5516 19.1243
upperneck 19.6339 19.1299 -16.2918
head 10.0361 9.2852 -6.58399
rclavicle -7.17726e-015 2.57302e-014
rhumerus -46.5367 25.1601 -96.5889
rradius 54.2467
rwrist -8.61517
rhand -6.80253 -11.4775
rfingers 7.12502
rthumb 19.0607 -40.5635
lclavicle -7.17726e-015 2.57302e-014
lhumerus -35.4009 -20.3297 74.7779
lradius 69.1979
lwrist -4.06229
lhand -2.51627 11.929
lfingers 7.12502
lthumb 23.1781 40.5544
rfemur -16.2468 5.9422 16.4223
rtibia 29.2463
rfoot -22.3608 -16.8276
rtoes -5.40918
lfemur -26.1327 -6.38726 -6.81577
ltibia 21.5493
lfoot -2.67523 19.8189
ltoes 6.28777
851
root 0.192822 15.7302 6.55484 11.7498 -9.60933 2.41767
lowerback 0.256716 -1.56226 0.828239
upperback -6.16169 -2.13644 -0.949045
thorax -6.61156 -1.14417 -1.32152
lowerneck -2.04478 12.5336 19.1478
upperneck 19.5084 19.1095 -16.3969
head 10.0013 9.27199 -6.62763
rclavicle 9.12315e-015 -3.08365e-014
rhumerus -45.98 24.5878 -96.2384
rradius 52.7075
rwrist -8.34312
rhand -6.75844 -11.659
rfingers 7.12502
rthumb 19.1031 -40.7409
lclavicle 9.12315e-015 -3.08365e-014
lhumerus -36.6743 -18.6103 75.6655
lradius 67.4141
lwrist -3.87634
lhand -2.92495 12.182
lfingers 7.12502
lthumb 22.786 40.8562
rfemur -16.4353 6.18868 16.2816
rtibia 29.2566
rfoot -22.5925 -16.9735
rtoes -5.61379
lfemur -25.806 -5.3174 -7.78532
ltibia 22.6309
lfoot -3.27607 18.485
ltoes 4.69636
852
root 0.17433 15.7387 6.51668 11.7697 -9.81119 2.53622
lowerback 0.167163 -1.50421 0.853045
upperback -6.1818 -2.05981 -0.977138
thorax -6.58095 -1.10867 -1.37157
lowerneck -2.04438 12.5107 19.1497
upperneck 19.4097 19.0818 -16.4772
head 9.96958 9.25528 -6.66072
rclavicle 9.33162e-015 1.65737e-014
rhumerus -45.4962 23.9543 -95.8815
rradius 51.2694
rwrist -8.16774
rhand -6.78433 -11.8198
rfingers 7.12502
rthumb 19.0782 -40.9041
lclavicle 9.33162e-015 1.65737e-014
lhumerus -37.8824 -16.813 76.4198
lradius 65.5842
lwrist -3.82487
lhand -3.43903 12.3579
lfingers 7.12502
lthumb 22.2926 41.092
rfemur -16.6203 6.39592 16.1769
rtibia 29.2427
rfoot -22.8504 -17.1205
rtoes -5.87355
lfemur -25.534 -4.36572 -8.66063
ltibia 23.7867
lfoot -4.03031 17.3966
ltoes 3.28735
853
root 0.157803 15.7468 6.48078 11.8094 -10.0014 2.62075
lowerback 0.0628241 -1.44259 0.922479
upperback -6.21386 -1.97635 -0.994289
thorax -6.55547 -1.07202 -1.43563
lowerneck -2.04593 12.4841 19.1329
upperneck 19.3422 19.0495 -16.5363
head 9.9439 9.23626 -6.68454
rclavicle -2.69029e-014 1.04362e-015
rhumerus -45.0881 23.2763 -95.5215
rradius 49.9324
rwrist -8.0682
rhand -6.90354 -11.946
rfingers 7.12502
rthumb 18.9636 -41.0415
lclavicle -2.69029e-014 1.04362e-015
lhumerus -39.0305 -14.937 77.0374
lradius 63.7208
lwrist -3.89014
lhand -3.98971 12.4946
lfingers 7.12502
lthumb 21.7638 41.291
rfemur -16.7941 6.56001 16.1038
rtibia 29.2017
rfoot -23.1289 -17.2673
rtoes -6.14006
lfemur -25.3043 -3.53462 -9.45006
ltibia 24.983
lfoot -4.86919 16.5426
ltoes 2.04898
